<svg width="558.008" height="105.99" viewBox="0 0 558.008 105.99" xmlns="http://www.w3.org/2000/svg"><g id="svgGroup" stroke-linecap="round" fill-rule="evenodd" font-size="9pt" stroke-width="0.25mm" fill="#fff" stroke="#fff"><path d="M 0 71.29 L 0 71.159 A 0.844 0.844 0 0 1 0.029 70.927 Q 0.104 70.667 0.369 70.598 A 0.863 0.863 0 0 1 0.586 70.573 A 0.684 0.684 0 0 1 0.827 70.613 Q 1.019 70.685 1.118 70.887 A 0.854 0.854 0 0 1 1.172 71.029 A 6.249 6.249 0 0 0 2.102 73.202 A 5.796 5.796 0 0 0 3.483 74.61 Q 5.274 75.912 7.682 75.912 Q 11.719 75.912 14.876 73.34 A 25.73 25.73 0 0 0 17.874 70.437 Q 19.437 68.672 20.931 66.439 A 100.346 100.346 0 0 0 23.822 61.838 Q 25.24 59.449 26.694 56.743 A 162 162 0 0 0 26.888 56.381 Q 29.948 50.652 33.789 44.336 A 6.68 6.68 0 0 1 32.192 42.609 A 7.74 7.74 0 0 1 32.031 42.351 A 5.141 5.141 0 0 1 31.318 39.841 A 6.147 6.147 0 0 1 31.315 39.649 Q 31.315 37.175 32.878 36.166 A 6.332 6.332 0 0 1 35.961 35.173 A 7.749 7.749 0 0 1 36.458 35.157 A 11.364 11.364 0 0 1 38.922 35.435 A 12.933 12.933 0 0 1 39.388 35.547 A 154.808 154.808 0 0 1 44.694 27.898 A 71.335 71.335 0 0 1 49.736 21.795 A 65.164 65.164 0 0 1 50.488 20.997 A 47.946 47.946 0 0 1 56.842 15.417 A 44.201 44.201 0 0 1 56.869 15.398 A 28.274 28.274 0 0 1 64.063 11.589 A 48.355 48.355 0 0 0 51.367 9.896 Q 50.846 9.896 49.251 9.994 A 21.713 21.713 0 0 0 47.973 10.113 Q 47.264 10.199 46.465 10.334 A 42.839 42.839 0 0 0 45.475 10.515 A 29.063 29.063 0 0 0 42.929 11.135 A 37.346 37.346 0 0 0 40.82 11.817 Q 38.346 12.696 36.133 14.258 A 11.834 11.834 0 0 1 37.761 18.197 A 20.659 20.659 0 0 1 38.2 21.786 A 23.468 23.468 0 0 1 38.216 22.657 A 12.168 12.168 0 0 1 38.134 24.037 A 15.768 15.768 0 0 1 37.956 25.196 Q 37.695 26.563 37.044 27.735 A 6.075 6.075 0 0 1 35.809 29.308 A 5.678 5.678 0 0 1 35.384 29.655 A 3.675 3.675 0 0 1 33.991 30.281 Q 33.481 30.396 32.892 30.404 A 6.433 6.433 0 0 1 32.813 30.404 A 4.812 4.812 0 0 1 31.139 30.124 A 4.217 4.217 0 0 1 29.427 28.939 A 5.085 5.085 0 0 1 28.209 26.3 A 7.007 7.007 0 0 1 28.125 25.196 A 5.78 5.78 0 0 1 28.18 24.435 Q 28.233 24.036 28.338 23.58 A 13.652 13.652 0 0 1 28.548 22.787 A 15.135 15.135 0 0 1 29.148 21.134 A 19.418 19.418 0 0 1 29.785 19.792 A 20.585 20.585 0 0 1 31.275 17.371 A 23.652 23.652 0 0 1 31.771 16.7 A 14.986 14.986 0 0 1 34.44 13.998 A 8.747 8.747 0 0 0 33.604 13.106 A 7.505 7.505 0 0 0 33.203 12.761 A 15.552 15.552 0 0 0 31.836 11.784 A 4.987 4.987 0 0 0 31.583 11.628 Q 31.302 11.464 30.894 11.261 A 21.869 21.869 0 0 0 30.632 11.133 L 29.004 10.352 A 35.155 35.155 0 0 1 28.426 10.068 Q 27.97 9.839 27.604 9.636 A 4.089 4.089 0 0 1 27.405 9.518 Q 27.018 9.274 27.018 9.115 A 0.661 0.661 0 0 1 27.051 8.9 Q 27.156 8.594 27.604 8.594 L 27.734 8.594 L 28.516 8.822 A 8.132 8.132 0 0 1 29.095 9.017 Q 29.392 9.129 29.727 9.275 A 19.527 19.527 0 0 1 30.436 9.603 A 16.241 16.241 0 0 1 31.547 10.201 Q 32.201 10.584 32.91 11.068 Q 34.245 11.98 35.417 13.347 L 35.417 13.282 A 24.143 24.143 0 0 1 39.183 11.243 A 21.506 21.506 0 0 1 40.462 10.743 A 41.899 41.899 0 0 1 42.944 9.945 A 31.577 31.577 0 0 1 45.247 9.376 A 36.517 36.517 0 0 1 46.83 9.084 Q 47.613 8.959 48.313 8.888 A 19.178 19.178 0 0 1 49.121 8.822 A 126.622 126.622 0 0 1 49.84 8.782 Q 50.919 8.724 51.367 8.724 A 49.248 49.248 0 0 1 58.464 9.245 A 51.753 51.753 0 0 1 62.876 10.093 A 64.803 64.803 0 0 1 66.081 10.938 Q 67.643 10.482 69.303 10.222 A 21.952 21.952 0 0 1 72.109 9.971 A 24.893 24.893 0 0 1 72.787 9.961 Q 74.675 9.961 76.595 10.189 A 15.437 15.437 0 0 1 80.241 11.068 Q 81.966 11.719 83.366 12.924 A 8.501 8.501 0 0 1 84.959 14.774 A 10.931 10.931 0 0 1 85.677 16.081 A 0.277 0.277 0 0 0 85.696 16.181 A 0.34 0.34 0 0 0 85.71 16.211 A 0.314 0.314 0 0 1 85.736 16.285 A 0.266 0.266 0 0 1 85.742 16.342 A 0.844 0.844 0 0 1 85.713 16.574 Q 85.639 16.834 85.373 16.903 A 0.863 0.863 0 0 1 85.156 16.928 A 0.718 0.718 0 0 1 84.957 16.902 A 0.477 0.477 0 0 1 84.636 16.602 Q 83.919 14.909 82.715 13.835 Q 81.511 12.761 80.013 12.175 A 13.675 13.675 0 0 0 77.034 11.391 A 15.194 15.194 0 0 0 76.823 11.361 Q 75.13 11.133 73.372 11.133 Q 71.94 11.133 70.638 11.264 Q 69.336 11.394 68.034 11.654 A 0.208 0.208 0 0 1 68.071 11.657 Q 68.109 11.664 68.132 11.687 A 0.102 0.102 0 0 0 68.172 11.711 Q 68.188 11.716 68.208 11.718 A 0.229 0.229 0 0 0 68.229 11.719 A 29.057 29.057 0 0 1 71.673 13.329 Q 73.39 14.282 74.733 15.39 A 16.061 16.061 0 0 1 75.586 16.146 A 25.056 25.056 0 0 1 77.863 18.609 A 18.16 18.16 0 0 1 79.753 21.452 Q 81.185 24.154 81.608 26.465 A 41.098 41.098 0 0 1 81.793 27.554 Q 82.031 29.086 82.031 30.014 Q 82.031 31.037 81.894 32.395 A 43.082 43.082 0 0 1 81.738 33.724 A 13.44 13.44 0 0 1 81.194 36.085 Q 80.824 37.23 80.241 38.445 A 17.113 17.113 0 0 1 78.784 40.896 Q 77.985 42.027 76.943 43.178 A 29.657 29.657 0 0 1 76.595 43.555 A 19.677 19.677 0 0 1 74.11 45.767 Q 72.851 46.721 71.313 47.625 A 37.705 37.705 0 0 1 69.857 48.438 Q 66.537 50.196 63.151 50.912 Q 59.766 51.628 56.511 51.628 A 29.435 29.435 0 0 1 55.111 51.596 A 32.587 32.587 0 0 1 53.711 51.498 Q 54.167 53.711 54.167 56.251 Q 54.167 57.813 53.939 59.343 Q 53.711 60.873 53.451 62.37 Q 53.19 63.868 52.962 65.43 Q 52.734 66.993 52.734 68.62 Q 52.734 69.727 53.027 70.834 A 6.24 6.24 0 0 0 53.754 72.539 A 5.821 5.821 0 0 0 53.939 72.82 Q 54.557 73.698 55.534 74.219 Q 56.511 74.74 57.813 74.74 A 7.921 7.921 0 0 0 61.573 73.778 A 9.477 9.477 0 0 0 61.947 73.568 Q 63.932 72.396 65.56 70.899 A 0.439 0.439 0 0 1 65.873 70.769 A 0.577 0.577 0 0 1 65.886 70.769 Q 66.537 70.769 66.537 71.42 A 0.433 0.433 0 0 1 66.488 71.615 Q 66.456 71.679 66.403 71.743 A 0.971 0.971 0 0 1 66.341 71.81 A 15.506 15.506 0 0 1 64.357 73.476 A 19.976 19.976 0 0 1 62.5 74.642 A 10.009 10.009 0 0 1 59.601 75.733 A 9.021 9.021 0 0 1 57.813 75.912 A 5.961 5.961 0 0 1 55.105 75.303 A 6.048 6.048 0 0 1 53.353 73.959 A 6.576 6.576 0 0 1 51.817 70.994 Q 51.578 70.003 51.564 68.841 A 12.135 12.135 0 0 1 51.563 68.685 A 27.709 27.709 0 0 1 51.947 64.163 A 32.291 32.291 0 0 1 52.246 62.598 A 29.619 29.619 0 0 0 52.93 56.316 A 30.2 30.2 0 0 0 52.832 53.874 A 21.007 21.007 0 0 0 52.594 52.013 A 24.221 24.221 0 0 0 52.474 51.368 A 50.114 50.114 0 0 1 49.296 50.923 Q 47.596 50.626 46.126 50.228 A 47.876 47.876 0 0 1 43.675 49.498 Q 42.531 49.121 41.527 48.717 A 29.06 29.06 0 0 1 41.244 48.601 A 34.732 34.732 0 0 1 39.272 47.713 A 25.267 25.267 0 0 1 37.533 46.778 Q 36.044 45.897 34.866 45.157 A 82.011 82.011 0 0 1 34.701 45.053 Q 32.487 48.698 30.501 52.507 A 326.157 326.157 0 0 1 26.53 59.896 A 108.973 108.973 0 0 1 23.515 65.011 A 95.005 95.005 0 0 1 22.494 66.602 A 39.727 39.727 0 0 1 19.91 70.121 A 32.501 32.501 0 0 1 18.164 72.071 Q 15.886 74.415 13.314 75.749 A 12 12 0 0 1 7.873 77.083 A 13.925 13.925 0 0 1 7.682 77.084 A 8.425 8.425 0 0 1 2.865 75.586 A 6.761 6.761 0 0 1 0.099 71.677 A 8.8 8.8 0 0 1 0 71.29 Z M 69.359 105.605 A 7.666 7.666 0 0 0 70.573 105.73 A 9.022 9.022 0 0 0 72.981 105.389 A 12.218 12.218 0 0 0 75.065 104.59 Q 77.409 103.451 79.753 101.661 A 43.015 43.015 0 0 0 84.277 97.657 Q 86.458 95.443 88.346 93.295 Q 90.755 90.495 92.969 87.598 A 160.796 160.796 0 0 0 94.055 86.16 A 140.04 140.04 0 0 0 97.07 81.967 A 128.1 128.1 0 0 0 98.861 79.306 A 102.521 102.521 0 0 0 100.456 76.791 A 96.664 96.664 0 0 0 101.129 75.677 Q 102.182 73.907 102.93 72.461 L 103.06 72.201 L 103.19 71.941 A 295.269 295.269 0 0 1 104.934 70.989 Q 107.638 69.525 109.408 68.653 A 3749.873 3749.873 0 0 0 109.697 68.51 Q 111.341 67.7 111.981 67.382 A 105.831 105.831 0 0 0 112.24 67.253 Q 112.297 67.196 113.625 66.516 A 218.809 218.809 0 0 1 114.03 66.309 A 46.735 46.735 0 0 0 114.673 65.975 Q 116.265 65.133 118.652 63.737 Q 120.463 62.68 122.617 61.316 A 204.351 204.351 0 0 0 125.326 59.571 A 85.566 85.566 0 0 0 128.692 57.244 A 108.212 108.212 0 0 0 133.203 53.777 A 0.218 0.218 0 0 0 133.303 53.708 Q 133.399 53.594 133.399 53.321 Q 133.399 53.126 133.236 52.93 A 0.823 0.823 0 0 0 133.216 52.908 Q 133.163 52.848 133.106 52.809 A 0.397 0.397 0 0 0 132.878 52.735 A 0.367 0.367 0 0 0 132.81 52.742 Q 132.727 52.757 132.609 52.808 A 2.304 2.304 0 0 0 132.487 52.865 A 111.364 111.364 0 0 1 128.961 55.608 A 88.157 88.157 0 0 1 124.609 58.659 A 218.725 218.725 0 0 1 122.342 60.126 Q 121.254 60.82 120.258 61.434 A 117.436 117.436 0 0 1 118.001 62.793 A 162.549 162.549 0 0 1 116.735 63.529 Q 114.765 64.66 113.444 65.333 L 111.719 66.211 A 0.108 0.108 0 0 0 111.692 66.219 Q 111.504 66.291 110.085 67.009 A 296.986 296.986 0 0 0 109.603 67.253 A 183.595 183.595 0 0 0 109.156 67.481 Q 107.748 68.201 105.813 69.218 A 624.367 624.367 0 0 0 104.232 70.053 A 159.421 159.421 0 0 1 105.112 68.405 Q 105.586 67.53 106.126 66.553 A 328.623 328.623 0 0 1 107.52 64.063 A 698.821 698.821 0 0 0 109.546 60.45 A 810.676 810.676 0 0 0 111.654 56.641 Q 112.24 56.12 112.793 55.665 A 47.118 47.118 0 0 0 113.867 54.753 Q 117.448 51.693 120.117 48.861 A 72.905 72.905 0 0 0 120.85 48.072 Q 123.034 45.686 124.544 43.588 Q 126.302 41.146 127.181 39.193 Q 128.06 37.24 128.06 35.873 Q 128.06 34.766 127.734 34.18 A 3.41 3.41 0 0 0 127.635 34.012 Q 127.346 33.555 126.986 33.334 A 2.261 2.261 0 0 0 126.695 33.182 A 1.737 1.737 0 0 0 126.139 33.041 Q 125.809 33.015 125.657 33.01 A 1.997 1.997 0 0 0 125.586 33.008 A 3.181 3.181 0 0 0 124.309 33.276 A 4.03 4.03 0 0 0 123.372 33.855 Q 122.331 34.701 121.81 35.808 A 27.49 27.49 0 0 1 121.734 35.959 Q 121.394 36.629 120.76 37.798 A 220.326 220.326 0 0 1 120.247 38.737 A 467.592 467.592 0 0 1 119.514 40.069 Q 119.127 40.769 118.699 41.54 A 858.336 858.336 0 0 1 117.611 43.49 Q 116.081 46.224 114.29 49.447 A 2110.8 2110.8 0 0 0 110.742 55.86 A 87.273 87.273 0 0 1 108.521 57.536 A 116.473 116.473 0 0 1 106.022 59.31 A 56.677 56.677 0 0 1 100.456 62.696 Q 97.526 64.258 94.531 65.267 A 20.85 20.85 0 0 1 92.77 65.778 A 17.143 17.143 0 0 1 88.737 66.277 Q 87.175 66.277 85.742 65.886 A 9.287 9.287 0 0 1 84.882 65.607 A 7.579 7.579 0 0 1 83.236 64.747 A 5.651 5.651 0 0 1 81.511 62.826 A 4.983 4.983 0 0 1 81.012 61.514 A 6.342 6.342 0 0 1 80.859 60.092 A 10.751 10.751 0 0 1 81.074 57.981 A 13.477 13.477 0 0 1 81.836 55.502 Q 82.813 53.126 83.984 51.107 A 49.265 49.265 0 0 1 84.698 49.916 Q 85.045 49.355 85.373 48.864 A 24.376 24.376 0 0 1 86.133 47.787 Q 86.987 46.648 87.144 46.455 A 0.583 0.583 0 0 1 87.175 46.42 A 39.77 39.77 0 0 1 88.255 45.092 A 48.256 48.256 0 0 1 90.3 42.839 A 37.876 37.876 0 0 1 91.203 41.934 A 42.936 42.936 0 0 1 94.206 39.291 A 42.593 42.593 0 0 1 98.828 36.068 Q 101.302 34.571 104.102 33.529 A 0.759 0.759 0 0 0 104.128 33.52 Q 104.389 33.422 104.463 33.167 A 0.804 0.804 0 0 0 104.492 32.943 A 0.409 0.409 0 0 0 104.471 32.814 Q 104.447 32.743 104.398 32.672 A 0.88 0.88 0 0 0 104.297 32.553 A 0.816 0.816 0 0 0 104.284 32.54 A 0.621 0.621 0 0 0 103.841 32.357 A 0.229 0.229 0 0 0 103.82 32.358 Q 103.8 32.36 103.784 32.365 A 0.102 0.102 0 0 0 103.744 32.39 Q 103.721 32.412 103.683 32.419 A 0.208 0.208 0 0 1 103.646 32.422 A 30.212 30.212 0 0 0 98.177 35.059 A 52.097 52.097 0 0 0 97.532 35.461 A 47.394 47.394 0 0 0 93.327 38.445 A 44.05 44.05 0 0 0 92.5 39.12 A 38.887 38.887 0 0 0 89.258 42.155 Q 87.435 44.076 86.198 45.769 Q 85.091 47.266 83.919 48.991 Q 82.747 50.717 81.803 52.572 Q 80.859 54.428 80.241 56.316 Q 79.622 58.204 79.622 60.027 A 8.976 8.976 0 0 0 79.681 61.07 A 6.117 6.117 0 0 0 82.292 65.56 A 9.935 9.935 0 0 0 85.792 67.112 A 13.405 13.405 0 0 0 88.867 67.448 A 17.09 17.09 0 0 0 90.384 67.38 A 19.43 19.43 0 0 0 94.206 66.635 Q 96.94 65.821 99.577 64.519 A 47.798 47.798 0 0 0 104.688 61.589 Q 107.162 59.961 109.31 58.399 A 434.687 434.687 0 0 0 107.194 62.175 A 344.585 344.585 0 0 0 105.274 65.691 A 524.363 524.363 0 0 1 104.458 67.199 Q 103.605 68.771 102.942 69.963 A 156.453 156.453 0 0 1 102.344 71.029 A 301.836 301.836 0 0 0 100.34 72.156 A 344.605 344.605 0 0 0 94.108 75.782 Q 89.844 78.321 85.84 81.023 Q 81.836 83.724 78.255 86.491 A 74.809 74.809 0 0 0 74.902 89.234 A 56.985 56.985 0 0 0 72.005 91.928 Q 69.336 94.597 67.774 97.103 A 13.956 13.956 0 0 0 67.297 97.927 Q 66.82 98.823 66.553 99.67 A 6.929 6.929 0 0 0 66.211 101.758 A 5.088 5.088 0 0 0 66.236 102.273 A 3.796 3.796 0 0 0 67.253 104.558 A 3.16 3.16 0 0 0 68.216 105.245 Q 68.719 105.483 69.359 105.605 Z M 332.878 67.058 L 331.706 67.058 A 47.987 47.987 0 0 0 331.302 60.96 A 56.417 56.417 0 0 0 330.925 58.464 A 44.493 44.493 0 0 0 328.812 50.695 A 50.137 50.137 0 0 0 328.32 49.415 A 65.174 65.174 0 0 1 325.521 49.61 Q 324.154 49.675 322.656 49.675 Q 318.034 49.675 314.583 49.187 A 57.404 57.404 0 0 1 312.133 48.788 Q 310.205 48.43 308.659 47.982 A 364.461 364.461 0 0 1 304.038 55.342 A 328.675 328.675 0 0 1 303.386 56.348 A 56.941 56.941 0 0 1 300.127 60.877 A 46.441 46.441 0 0 1 297.949 63.412 A 27.57 27.57 0 0 1 294.46 66.61 A 22.853 22.853 0 0 1 291.927 68.295 Q 288.737 70.118 284.896 70.118 A 12.669 12.669 0 0 1 282.971 69.979 Q 281.646 69.776 280.599 69.271 A 9.958 9.958 0 0 1 278.652 68.053 A 8.53 8.53 0 0 1 277.669 67.123 A 10.174 10.174 0 0 1 275.848 64.294 A 14.328 14.328 0 0 1 275.846 64.291 A 21.545 21.545 0 0 1 275.277 62.81 A 16.17 16.17 0 0 1 274.87 61.426 A 18.892 18.892 0 0 1 274.662 60.476 Q 274.573 60.007 274.524 59.593 A 9.266 9.266 0 0 1 274.479 59.115 Q 274.418 58.193 274.414 58.026 A 0.856 0.856 0 0 1 274.414 58.008 A 1.054 1.054 0 0 1 274.44 57.763 Q 274.519 57.434 274.838 57.372 A 0.847 0.847 0 0 1 275 57.357 A 0.844 0.844 0 0 1 275.232 57.386 Q 275.492 57.461 275.561 57.726 A 0.863 0.863 0 0 1 275.586 57.943 A 10.125 10.125 0 0 0 275.646 58.998 Q 275.704 59.558 275.822 60.194 A 21.984 21.984 0 0 0 276.009 61.101 Q 276.432 62.956 277.507 64.714 A 9.662 9.662 0 0 0 280.123 67.512 A 11.208 11.208 0 0 0 280.404 67.709 A 6.944 6.944 0 0 0 282.871 68.738 Q 283.824 68.943 284.926 68.946 A 12.051 12.051 0 0 0 284.961 68.946 A 12.643 12.643 0 0 0 291.439 67.221 A 22.158 22.158 0 0 0 295.027 64.594 A 27.776 27.776 0 0 0 297.07 62.566 Q 299.74 59.636 302.279 55.762 Q 304.818 51.889 307.552 47.592 A 18.251 18.251 0 0 1 305.736 46.74 Q 303.935 45.761 302.995 44.597 A 6.591 6.591 0 0 1 302.066 43.092 A 5.147 5.147 0 0 1 301.628 41.016 A 6.915 6.915 0 0 1 301.781 39.523 A 5.21 5.21 0 0 1 302.376 37.989 A 5.889 5.889 0 0 1 304.395 35.938 A 8.877 8.877 0 0 1 306.452 35.019 A 10.673 10.673 0 0 1 307.292 34.799 A 15.708 15.708 0 0 1 310.663 34.441 A 18.126 18.126 0 0 1 310.677 34.441 A 24.556 24.556 0 0 1 313.184 34.571 A 13.759 13.759 0 0 1 315.552 35.032 A 15.255 15.255 0 0 1 315.755 35.092 Q 316.081 34.571 316.471 34.017 A 46.072 46.072 0 0 1 317.253 32.943 A 248.495 248.495 0 0 1 325.047 22.946 A 215.686 215.686 0 0 1 327.637 19.857 A 86.113 86.113 0 0 1 334.221 12.937 A 71.224 71.224 0 0 1 338.281 9.408 A 50.315 50.315 0 0 1 346.361 4.066 A 44.219 44.219 0 0 1 349.642 2.507 Q 355.534 0.001 362.175 0.001 A 24.258 24.258 0 0 1 366.129 0.337 A 28.634 28.634 0 0 1 367.741 0.652 A 14.716 14.716 0 0 1 371.8 2.248 A 18.13 18.13 0 0 1 373.372 3.256 A 0.631 0.631 0 0 1 373.616 3.657 A 0.977 0.977 0 0 1 373.633 3.842 A 0.567 0.567 0 0 1 373.603 4.033 Q 373.514 4.284 373.153 4.297 A 1.121 1.121 0 0 1 373.112 4.297 Q 372.852 4.297 372.721 4.167 A 17.267 17.267 0 0 0 369.163 2.304 A 15.673 15.673 0 0 0 368.132 1.954 A 20.725 20.725 0 0 0 364.622 1.209 A 18.402 18.402 0 0 0 363.477 1.107 A 89.104 89.104 0 0 0 363.255 1.266 Q 362.667 1.689 361.133 2.8 Q 359.286 4.137 356.629 6.596 A 97.325 97.325 0 0 0 356.511 6.706 Q 354.161 8.888 351.474 11.96 A 105.7 105.7 0 0 0 350.586 12.989 A 60.882 60.882 0 0 0 347.087 17.532 A 79.471 79.471 0 0 0 344.336 21.745 A 76.026 76.026 0 0 0 340.852 28.157 A 95.675 95.675 0 0 0 338.639 33.073 A 66.311 66.311 0 0 0 335.789 41.527 A 82.328 82.328 0 0 0 334.505 47.136 A 40.487 40.487 0 0 0 336.71 46.535 Q 337.793 46.205 338.734 45.841 A 23.435 23.435 0 0 0 339.16 45.671 A 55.17 55.17 0 0 0 340.553 45.079 Q 341.634 44.601 342.448 44.174 A 31.916 31.916 0 0 0 343.06 43.844 Q 343.719 43.48 344.174 43.18 A 8.488 8.488 0 0 0 344.434 43.002 A 78.484 78.484 0 0 0 344.595 42.886 Q 345.091 42.53 345.173 42.457 A 0.224 0.224 0 0 0 345.182 42.448 A 2.304 2.304 0 0 1 345.304 42.391 Q 345.423 42.341 345.506 42.325 A 0.367 0.367 0 0 1 345.573 42.318 A 0.633 0.633 0 0 1 345.823 42.372 A 0.869 0.869 0 0 1 345.964 42.448 A 0.421 0.421 0 0 1 346.153 42.753 A 0.613 0.613 0 0 1 346.159 42.839 Q 346.159 43.055 345.98 43.27 A 1.295 1.295 0 0 1 345.899 43.36 L 345.182 43.913 A 7.591 7.591 0 0 1 344.676 44.269 Q 344.148 44.612 343.385 45.016 A 29.497 29.497 0 0 1 343.001 45.215 A 32.403 32.403 0 0 1 341.802 45.795 Q 341.26 46.044 340.649 46.306 A 65.048 65.048 0 0 1 339.356 46.843 A 26.944 26.944 0 0 1 337.146 47.617 Q 335.975 47.974 334.643 48.283 A 45.72 45.72 0 0 1 334.245 48.373 A 98.23 98.23 0 0 0 333.203 57.292 A 127.669 127.669 0 0 0 332.923 63.243 A 155.238 155.238 0 0 0 332.878 67.058 Z M 557.922 53.151 A 4.603 4.603 0 0 0 557.878 53.06 A 0.816 0.816 0 0 0 557.865 53.048 A 0.621 0.621 0 0 0 557.422 52.865 A 0.367 0.367 0 0 0 557.355 52.872 Q 557.272 52.888 557.153 52.938 A 2.304 2.304 0 0 0 557.031 52.995 L 556.185 53.646 A 42.508 42.508 0 0 1 555.754 53.973 Q 555.243 54.356 554.568 54.843 A 137.753 137.753 0 0 1 553.874 55.339 Q 553.05 55.925 552.061 56.593 A 140.966 140.966 0 0 1 550.423 57.683 A 79.791 79.791 0 0 1 548.888 58.664 A 95.152 95.152 0 0 1 546.126 60.32 Q 543.815 61.654 541.276 62.924 Q 538.737 64.193 536.198 65.105 A 77.336 77.336 0 0 0 536.011 65.178 A 84.552 84.552 0 0 0 533.138 66.374 Q 531.576 67.058 530.013 67.774 A 59.856 59.856 0 0 1 531.506 65.5 A 50.998 50.998 0 0 1 535.58 60.32 A 76.355 76.355 0 0 1 537.801 57.954 A 63.704 63.704 0 0 1 541.504 54.46 A 65.054 65.054 0 0 1 544.409 52.076 A 49.871 49.871 0 0 1 547.201 50.066 Q 548.91 48.926 550.352 48.054 A 51.359 51.359 0 0 1 551.986 47.103 Q 554.037 45.964 555.241 45.411 Q 556.384 44.885 556.325 44.859 A 0.025 0.025 0 0 0 556.315 44.857 A 0.831 0.831 0 0 0 556.347 44.837 Q 556.527 44.718 556.597 44.532 A 0.737 0.737 0 0 0 556.641 44.271 A 0.66 0.66 0 0 0 556.639 44.223 A 0.519 0.519 0 0 0 556.445 43.848 A 0.983 0.983 0 0 0 556.413 43.822 Q 556.343 43.769 556.273 43.736 A 0.513 0.513 0 0 0 556.055 43.685 Q 555.959 43.685 555.916 43.703 A 0.072 0.072 0 0 0 555.892 43.718 Q 555.869 43.741 555.831 43.747 A 0.208 0.208 0 0 1 555.794 43.751 Q 553.125 45.053 550.749 46.583 A 353.274 353.274 0 0 0 546.029 49.675 A 34.78 34.78 0 0 0 546.71 48.885 Q 549.159 45.958 550.111 43.426 A 8.702 8.702 0 0 0 550.716 40.365 Q 550.716 38.152 549.577 36.752 Q 548.438 35.352 546.777 34.571 A 12.184 12.184 0 0 0 543.262 33.529 Q 541.406 33.269 539.909 33.269 Q 534.245 33.269 528.06 36.068 A 39.993 39.993 0 0 0 527.189 36.475 Q 524.133 37.948 520.999 40.083 A 66.757 66.757 0 0 0 515.365 44.402 Q 506.185 52.214 506.185 58.79 A 10.657 10.657 0 0 0 506.252 59.999 A 8.555 8.555 0 0 0 507.031 62.761 Q 507.878 64.519 509.31 65.788 Q 510.742 67.058 512.663 67.741 A 11.851 11.851 0 0 0 516.667 68.425 Q 520.573 68.425 524.837 66.211 A 47.347 47.347 0 0 0 526.902 65.07 Q 530.383 63.037 534.57 59.896 A 63.467 63.467 0 0 0 533.851 60.726 A 56.348 56.348 0 0 0 531.022 64.323 A 171.695 171.695 0 0 0 530.623 64.88 A 188.985 188.985 0 0 0 527.8 68.946 A 162.926 162.926 0 0 0 524.624 70.679 A 193.395 193.395 0 0 0 519.108 73.894 A 161.562 161.562 0 0 0 510.287 79.623 A 169.811 169.811 0 0 0 510.018 79.81 A 156.359 156.359 0 0 0 502.116 85.71 Q 498.242 88.803 495.345 91.732 Q 493.716 93.38 492.457 94.946 A 28.578 28.578 0 0 0 490.723 97.331 Q 489.685 98.937 489.271 100.331 A 6.167 6.167 0 0 0 488.997 102.084 A 4.394 4.394 0 0 0 489.037 102.679 A 3.425 3.425 0 0 0 489.388 103.809 Q 489.779 104.558 490.43 105.046 Q 491.081 105.534 491.83 105.762 Q 492.578 105.99 493.359 105.99 A 6.666 6.666 0 0 0 494.525 105.886 A 8.007 8.007 0 0 0 496.159 105.404 A 20.571 20.571 0 0 0 497.071 105.006 A 17.168 17.168 0 0 0 498.763 104.102 Q 499.935 103.386 500.716 102.767 A 172.48 172.48 0 0 0 500.802 102.7 Q 501.501 102.145 501.563 102.084 A 50.625 50.625 0 0 0 502.836 100.942 Q 504.781 99.141 507.162 96.615 A 156.745 156.745 0 0 0 510.449 93.01 A 205.227 205.227 0 0 0 513.932 88.965 A 221.82 221.82 0 0 0 516.186 86.237 A 259.52 259.52 0 0 0 521.257 79.786 Q 525 74.87 528.581 69.792 Q 530.534 68.816 532.585 67.839 A 46.397 46.397 0 0 1 532.841 67.718 A 42.386 42.386 0 0 1 536.654 66.146 A 56.215 56.215 0 0 0 544.759 62.468 A 129.171 129.171 0 0 0 545.261 62.188 Q 547.002 61.21 548.539 60.275 A 78.108 78.108 0 0 0 551.432 58.432 Q 554.297 56.511 555.99 55.209 A 189.25 189.25 0 0 1 556.395 54.898 Q 557.505 54.049 557.706 53.927 A 0.134 0.134 0 0 1 557.747 53.907 A 1.295 1.295 0 0 0 557.829 53.817 Q 558.008 53.602 558.008 53.386 A 0.069 0.069 0 0 0 558.008 53.384 Q 558.006 53.33 557.922 53.151 Z M 180.208 67.514 L 179.232 66.797 Q 179.107 66.922 179.907 65.854 A 152.885 152.885 0 0 1 179.981 65.756 Q 180.653 64.859 181.67 63.484 A 906.896 906.896 0 0 0 182.324 62.598 Q 183.789 60.612 185.677 57.976 A 196.506 196.506 0 0 0 188.546 53.856 A 222.122 222.122 0 0 0 189.518 52.409 Q 192.25 48.343 193.928 45.486 A 72.638 72.638 0 0 0 194.011 45.346 A 115.369 115.369 0 0 0 194.81 43.956 Q 195.939 41.96 196.647 40.495 A 41.506 41.506 0 0 0 197.081 39.572 Q 197.534 38.572 197.783 37.851 A 9.329 9.329 0 0 0 197.917 37.435 A 13.191 13.191 0 0 0 198.059 36.915 Q 198.198 36.361 198.231 35.975 A 2.674 2.674 0 0 0 198.242 35.743 A 2.491 2.491 0 0 0 198.236 35.562 Q 198.223 35.383 198.182 35.27 A 0.462 0.462 0 0 0 198.145 35.189 Q 198.047 35.027 198.047 34.831 A 0.844 0.844 0 0 1 198.076 34.599 Q 198.15 34.339 198.416 34.27 A 0.863 0.863 0 0 1 198.633 34.245 A 0.572 0.572 0 0 1 199.167 34.598 Q 199.309 34.876 199.34 35.374 A 4.821 4.821 0 0 1 199.349 35.678 Q 199.349 37.11 197.526 41.049 A 49.446 49.446 0 0 1 196.22 43.643 Q 194.408 47.017 191.341 51.823 Q 198.283 44.394 204.931 39.991 A 50.129 50.129 0 0 1 207.585 38.347 A 39.953 39.953 0 0 1 213.375 35.57 Q 218.083 33.79 222.396 33.79 Q 225.117 33.79 227.073 34.385 A 8.831 8.831 0 0 1 228.711 35.059 Q 231.055 36.329 231.055 38.998 A 6.997 6.997 0 0 1 230.724 41.094 A 8.29 8.29 0 0 1 230.534 41.635 A 17.902 17.902 0 0 1 229.761 43.353 A 15.206 15.206 0 0 1 229.362 44.076 A 26.726 26.726 0 0 1 228.911 44.817 Q 228.693 45.161 228.492 45.45 A 11.76 11.76 0 0 1 228.19 45.866 A 100.714 100.714 0 0 1 228.067 46.028 Q 227.661 46.558 227.604 46.615 L 227.181 47.168 A 80.946 80.946 0 0 1 226.951 47.468 Q 226.695 47.799 226.361 48.226 A 254.51 254.51 0 0 1 226.042 48.633 A 97.656 97.656 0 0 0 225.335 49.545 Q 224.966 50.025 224.563 50.562 A 161.219 161.219 0 0 0 224.447 50.717 Q 223.568 51.889 222.721 53.256 A 47.389 47.389 0 0 0 220.996 56.148 Q 218.75 60.264 218.75 62.761 A 3.659 3.659 0 0 0 218.949 63.986 A 3.218 3.218 0 0 0 219.596 65.072 Q 220.26 65.812 221.564 65.972 A 6.313 6.313 0 0 0 222.331 66.016 Q 224.451 66.016 227.616 64.583 A 28.425 28.425 0 0 0 227.897 64.454 Q 230.333 63.318 233.371 61.358 A 82.355 82.355 0 0 0 235.742 59.766 A 91.024 91.024 0 0 0 238.739 57.618 A 81.224 81.224 0 0 0 239.681 56.902 Q 241.413 55.564 242.777 54.454 A 105.82 105.82 0 0 0 242.969 54.297 Q 244.191 53.297 244.963 52.605 A 26.303 26.303 0 0 0 245.215 52.377 L 246.029 51.628 A 2.304 2.304 0 0 1 246.151 51.571 Q 246.269 51.521 246.352 51.505 A 0.367 0.367 0 0 1 246.419 51.498 A 0.844 0.844 0 0 1 246.651 51.527 Q 246.911 51.601 246.98 51.867 A 0.863 0.863 0 0 1 247.005 52.084 A 0.621 0.621 0 0 1 246.822 52.527 A 0.816 0.816 0 0 1 246.81 52.54 A 66.046 66.046 0 0 1 244.918 54.193 A 78.647 78.647 0 0 1 243.685 55.209 A 198.083 198.083 0 0 1 242.351 56.29 Q 241.668 56.839 240.911 57.439 A 330.717 330.717 0 0 1 240.397 57.846 Q 238.542 59.31 236.458 60.743 A 67.876 67.876 0 0 1 232.284 63.459 Q 228.133 65.93 225.053 66.735 A 10.844 10.844 0 0 1 222.331 67.123 A 6.746 6.746 0 0 1 220.948 66.99 Q 220.078 66.808 219.419 66.376 A 3.769 3.769 0 0 1 218.815 65.886 A 4.175 4.175 0 0 1 217.586 63.052 A 5.54 5.54 0 0 1 217.578 62.761 Q 217.578 58.985 221.745 52.605 A 442.142 442.142 0 0 1 223.535 50.066 A 70.224 70.224 0 0 1 224.273 49.046 Q 224.614 48.584 224.926 48.18 A 39.183 39.183 0 0 1 225.13 47.917 A 52.139 52.139 0 0 1 225.96 46.859 A 41.705 41.705 0 0 1 226.758 45.899 Q 227.604 44.792 228.32 43.62 A 13.663 13.663 0 0 0 228.982 42.369 A 17.255 17.255 0 0 0 229.395 41.407 A 7.428 7.428 0 0 0 229.753 40.239 A 5.602 5.602 0 0 0 229.883 39.063 Q 229.883 35.027 222.331 35.027 A 23.206 23.206 0 0 0 214.453 36.426 A 41.504 41.504 0 0 0 206.901 40.04 A 53.554 53.554 0 0 0 199.935 45.085 Q 196.615 47.917 193.815 50.782 Q 191.016 53.646 188.802 56.316 Q 186.589 58.985 185.091 60.873 L 183.236 63.347 L 181.673 65.43 Q 181.062 66.246 180.685 66.8 A 17.267 17.267 0 0 0 180.599 66.928 L 180.208 67.514 Z M 341.211 67.514 L 340.234 66.797 Q 340.11 66.922 340.91 65.854 A 152.885 152.885 0 0 1 340.983 65.756 Q 341.656 64.859 342.672 63.484 A 906.896 906.896 0 0 0 343.327 62.598 Q 344.792 60.612 346.68 57.976 A 196.506 196.506 0 0 0 349.548 53.856 A 222.122 222.122 0 0 0 350.521 52.409 Q 353.253 48.343 354.931 45.486 A 72.638 72.638 0 0 0 355.013 45.346 A 115.369 115.369 0 0 0 355.813 43.956 Q 356.942 41.96 357.65 40.495 A 41.506 41.506 0 0 0 358.083 39.572 Q 358.536 38.572 358.786 37.851 A 9.329 9.329 0 0 0 358.919 37.435 A 13.191 13.191 0 0 0 359.062 36.915 Q 359.2 36.361 359.234 35.975 A 2.674 2.674 0 0 0 359.245 35.743 A 2.491 2.491 0 0 0 359.239 35.562 Q 359.226 35.383 359.185 35.27 A 0.462 0.462 0 0 0 359.147 35.189 Q 359.05 35.027 359.05 34.831 A 0.844 0.844 0 0 1 359.079 34.599 Q 359.153 34.339 359.419 34.27 A 0.863 0.863 0 0 1 359.636 34.245 A 0.572 0.572 0 0 1 360.17 34.598 Q 360.311 34.876 360.343 35.374 A 4.821 4.821 0 0 1 360.352 35.678 Q 360.352 37.11 358.529 41.049 A 49.446 49.446 0 0 1 357.223 43.643 Q 355.411 47.017 352.344 51.823 Q 359.286 44.394 365.934 39.991 A 50.129 50.129 0 0 1 368.587 38.347 A 39.953 39.953 0 0 1 374.378 35.57 Q 379.085 33.79 383.399 33.79 Q 386.119 33.79 388.076 34.385 A 8.831 8.831 0 0 1 389.714 35.059 Q 392.057 36.329 392.057 38.998 A 6.997 6.997 0 0 1 391.727 41.094 A 8.29 8.29 0 0 1 391.537 41.635 A 17.902 17.902 0 0 1 390.764 43.353 A 15.206 15.206 0 0 1 390.365 44.076 A 26.726 26.726 0 0 1 389.914 44.817 Q 389.696 45.161 389.495 45.45 A 11.76 11.76 0 0 1 389.193 45.866 A 100.714 100.714 0 0 1 389.07 46.028 Q 388.664 46.558 388.607 46.615 L 388.184 47.168 A 80.946 80.946 0 0 1 387.954 47.468 Q 387.698 47.799 387.364 48.226 A 254.51 254.51 0 0 1 387.044 48.633 A 97.656 97.656 0 0 0 386.337 49.545 Q 385.969 50.025 385.565 50.562 A 161.219 161.219 0 0 0 385.449 50.717 Q 384.57 51.889 383.724 53.256 A 47.389 47.389 0 0 0 381.998 56.148 Q 379.753 60.264 379.753 62.761 A 3.659 3.659 0 0 0 379.951 63.986 A 3.218 3.218 0 0 0 380.599 65.072 Q 381.263 65.812 382.567 65.972 A 6.313 6.313 0 0 0 383.333 66.016 Q 385.453 66.016 388.618 64.583 A 28.425 28.425 0 0 0 388.9 64.454 Q 391.336 63.318 394.373 61.358 A 82.355 82.355 0 0 0 396.745 59.766 A 91.024 91.024 0 0 0 399.742 57.618 A 81.224 81.224 0 0 0 400.684 56.902 Q 402.416 55.564 403.779 54.454 A 105.82 105.82 0 0 0 403.971 54.297 Q 405.194 53.297 405.966 52.605 A 26.303 26.303 0 0 0 406.218 52.377 L 407.031 51.628 A 2.304 2.304 0 0 1 407.153 51.571 Q 407.272 51.521 407.355 51.505 A 0.367 0.367 0 0 1 407.422 51.498 A 0.844 0.844 0 0 1 407.654 51.527 Q 407.914 51.601 407.983 51.867 A 0.863 0.863 0 0 1 408.008 52.084 A 0.621 0.621 0 0 1 407.825 52.527 A 0.816 0.816 0 0 1 407.813 52.54 A 66.046 66.046 0 0 1 405.92 54.193 A 78.647 78.647 0 0 1 404.688 55.209 A 198.083 198.083 0 0 1 403.353 56.29 Q 402.671 56.839 401.913 57.439 A 330.717 330.717 0 0 1 401.4 57.846 Q 399.544 59.31 397.461 60.743 A 67.876 67.876 0 0 1 393.287 63.459 Q 389.135 65.93 386.056 66.735 A 10.844 10.844 0 0 1 383.333 67.123 A 6.746 6.746 0 0 1 381.95 66.99 Q 381.081 66.808 380.422 66.376 A 3.769 3.769 0 0 1 379.818 65.886 A 4.175 4.175 0 0 1 378.588 63.052 A 5.54 5.54 0 0 1 378.581 62.761 Q 378.581 58.985 382.747 52.605 A 442.142 442.142 0 0 1 384.538 50.066 A 70.224 70.224 0 0 1 385.276 49.046 Q 385.616 48.584 385.928 48.18 A 39.183 39.183 0 0 1 386.133 47.917 A 52.139 52.139 0 0 1 386.963 46.859 A 41.705 41.705 0 0 1 387.761 45.899 Q 388.607 44.792 389.323 43.62 A 13.663 13.663 0 0 0 389.984 42.369 A 17.255 17.255 0 0 0 390.397 41.407 A 7.428 7.428 0 0 0 390.756 40.239 A 5.602 5.602 0 0 0 390.886 39.063 Q 390.886 35.027 383.333 35.027 A 23.206 23.206 0 0 0 375.456 36.426 A 41.504 41.504 0 0 0 367.904 40.04 A 53.554 53.554 0 0 0 360.938 45.085 Q 357.617 47.917 354.818 50.782 Q 352.018 53.646 349.805 56.316 Q 347.591 58.985 346.094 60.873 L 344.238 63.347 L 342.676 65.43 Q 342.064 66.246 341.687 66.8 A 17.267 17.267 0 0 0 341.602 66.928 L 341.211 67.514 Z M 191.471 52.865 A 0.693 0.693 0 0 0 191.459 52.737 Q 191.431 52.589 191.341 52.409 A 0.816 0.816 0 0 0 191.329 52.397 A 0.621 0.621 0 0 0 190.886 52.214 A 0.367 0.367 0 0 0 190.818 52.221 Q 190.735 52.237 190.617 52.287 A 2.304 2.304 0 0 0 190.495 52.344 A 80.963 80.963 0 0 1 190.407 52.426 A 87.745 87.745 0 0 1 184.505 57.422 A 69.112 69.112 0 0 1 184.406 57.5 A 63.418 63.418 0 0 1 178.027 61.849 A 45.673 45.673 0 0 1 176.183 62.889 A 38.842 38.842 0 0 1 171.517 65.007 A 20.622 20.622 0 0 1 169.093 65.753 A 16.017 16.017 0 0 1 165.365 66.211 Q 164.583 66.211 163.607 66.081 Q 162.63 65.951 161.751 65.626 A 4.712 4.712 0 0 1 161.589 65.562 A 4.052 4.052 0 0 1 160.254 64.682 A 2.073 2.073 0 0 1 159.795 64.002 A 2.212 2.212 0 0 1 159.636 63.152 Q 159.636 61.706 161.257 59.574 A 21.13 21.13 0 0 1 162.402 58.204 A 25.466 25.466 0 0 1 162.661 57.922 Q 165.419 54.962 170.638 51.172 Q 172.551 49.789 174.145 48.685 A 125.074 125.074 0 0 1 175.944 47.461 A 169.095 169.095 0 0 1 176.409 47.152 Q 177.804 46.229 178.874 45.563 A 55.988 55.988 0 0 1 179.655 45.085 Q 180.754 44.426 181.413 44.023 A 80.546 80.546 0 0 0 181.803 43.783 A 7.539 7.539 0 0 0 181.838 43.762 Q 182.331 43.453 182.45 43.269 A 0.199 0.199 0 0 0 182.487 43.165 A 0.863 0.863 0 0 0 182.462 42.948 Q 182.393 42.682 182.133 42.608 A 0.844 0.844 0 0 0 181.901 42.579 A 0.966 0.966 0 0 0 181.832 42.581 Q 181.747 42.587 181.694 42.609 A 0.166 0.166 0 0 0 181.641 42.644 A 0.055 0.055 0 0 0 181.639 42.644 Q 181.521 42.647 180.715 43.142 A 36.656 36.656 0 0 0 180.469 43.295 Q 179.427 43.946 177.767 45.053 A 942.84 942.84 0 0 0 177.29 45.371 Q 175.8 46.365 173.926 47.624 A 1442.949 1442.949 0 0 1 173.378 47.992 A 1606.611 1606.611 0 0 1 169.401 50.652 A 39.745 39.745 0 0 0 170.655 49.28 Q 173.39 46.139 174.453 43.435 A 8.928 8.928 0 0 0 175.13 40.17 A 8.056 8.056 0 0 0 175.13 40.073 Q 175.109 38.315 174.316 37.142 A 9.203 9.203 0 0 0 173.706 36.336 A 7.311 7.311 0 0 0 172.494 35.189 Q 171.926 34.768 171.4 34.481 A 6.054 6.054 0 0 0 170.606 34.115 Q 169.891 33.851 169.672 33.801 A 0.381 0.381 0 0 0 169.596 33.79 A 15.326 15.326 0 0 0 167.397 33.321 A 19.81 19.81 0 0 0 164.649 33.139 A 25.713 25.713 0 0 0 158.178 34.005 A 35.424 35.424 0 0 0 152.507 36.036 A 48.252 48.252 0 0 0 146.927 39.026 A 60.467 60.467 0 0 0 139.844 44.206 A 52.717 52.717 0 0 0 137.866 45.976 Q 133.545 50.052 131.793 53.765 A 11.448 11.448 0 0 0 130.599 58.659 A 10.948 10.948 0 0 0 130.701 60.181 A 8.472 8.472 0 0 0 131.445 62.696 A 8.958 8.958 0 0 0 133.757 65.691 A 9.896 9.896 0 0 0 134.035 65.917 A 10.401 10.401 0 0 0 137.142 67.579 A 12.386 12.386 0 0 0 141.146 68.23 Q 145.247 68.23 150.163 65.56 A 50.144 50.144 0 0 0 151.571 64.765 Q 153.708 63.514 155.992 61.91 A 90.793 90.793 0 0 0 160.807 58.269 A 19.576 19.576 0 0 0 160.209 59.037 Q 159.127 60.502 158.716 61.707 A 4.285 4.285 0 0 0 158.464 63.086 A 4.115 4.115 0 0 0 158.52 63.783 A 2.982 2.982 0 0 0 159.18 65.235 A 4.832 4.832 0 0 0 159.51 65.588 A 5.138 5.138 0 0 0 160.97 66.57 Q 162.044 67.058 163.249 67.221 A 22.421 22.421 0 0 0 163.286 67.226 Q 163.869 67.303 164.398 67.343 A 13.913 13.913 0 0 0 165.43 67.383 A 17.2 17.2 0 0 0 168.321 67.134 A 20.771 20.771 0 0 0 172.396 65.984 A 43.1 43.1 0 0 0 179.395 62.468 A 66.125 66.125 0 0 0 185.905 57.878 Q 187.475 56.622 188.853 55.449 A 90.461 90.461 0 0 0 191.341 53.256 A 2.343 2.343 0 0 0 191.395 53.142 Q 191.471 52.965 191.471 52.865 Z M 407.78 65.333 A 10.792 10.792 0 0 0 410.499 66.568 Q 413.15 67.383 416.927 67.383 A 35.847 35.847 0 0 0 416.938 67.383 Q 417.842 67.383 418.457 67.351 Q 418.96 67.324 419.14 67.319 A 2.53 2.53 0 0 1 419.206 67.318 A 1.188 1.188 0 0 0 419.251 67.317 Q 419.696 67.3 422.461 66.993 A 36.588 36.588 0 0 0 424.545 66.695 Q 425.667 66.504 426.951 66.229 A 87.059 87.059 0 0 0 429.818 65.56 Q 436.003 63.998 441.764 60.873 A 68.682 68.682 0 0 0 452.539 53.646 A 0.218 0.218 0 0 0 452.639 53.578 Q 452.734 53.464 452.734 53.191 A 0.863 0.863 0 0 0 452.709 52.974 Q 452.64 52.708 452.38 52.634 A 0.844 0.844 0 0 0 452.149 52.605 A 0.367 0.367 0 0 0 452.081 52.612 Q 451.998 52.627 451.88 52.678 A 2.304 2.304 0 0 0 451.758 52.735 A 67.7 67.7 0 0 1 450.228 53.968 A 58.979 58.979 0 0 1 445.638 57.227 A 67.863 67.863 0 0 1 443.371 58.614 A 55.864 55.864 0 0 1 439.714 60.58 A 63.665 63.665 0 0 1 437.559 61.585 A 51.581 51.581 0 0 1 434.245 62.924 A 66.331 66.331 0 0 1 433.523 63.181 Q 432.455 63.554 431.48 63.852 A 38.876 38.876 0 0 1 429.557 64.389 Q 427.344 64.974 425.456 65.3 A 142.682 142.682 0 0 1 424.323 65.491 Q 423.781 65.58 423.287 65.656 A 78.764 78.764 0 0 1 422.168 65.821 A 71.425 71.425 0 0 1 421.544 65.905 Q 420.893 65.99 420.398 66.041 A 20.809 20.809 0 0 1 419.955 66.081 L 419.141 66.146 A 0.476 0.476 0 0 0 419.132 66.146 Q 419.043 66.148 418.49 66.179 Q 418.05 66.203 417.428 66.209 A 44.486 44.486 0 0 1 416.992 66.211 Q 416.097 66.211 415.011 66.135 A 44.213 44.213 0 0 1 413.639 66.016 A 13.575 13.575 0 0 1 409.994 65.137 A 7.713 7.713 0 0 1 407.064 63.119 A 4.526 4.526 0 0 1 406.022 61.078 A 6.611 6.611 0 0 1 405.859 59.571 Q 405.859 56.902 407.552 53.516 A 23.67 23.67 0 0 1 407.666 53.291 Q 409.349 50.014 412.37 46.615 A 38.52 38.52 0 0 1 417.35 41.96 Q 419.987 39.909 422.656 38.51 A 31.643 31.643 0 0 1 424.153 37.774 A 26.843 26.843 0 0 1 427.93 36.361 A 20.603 20.603 0 0 1 430.146 35.849 A 15.815 15.815 0 0 1 432.813 35.612 A 9.765 9.765 0 0 1 434.091 35.691 Q 434.76 35.779 435.303 35.968 A 3.749 3.749 0 0 1 436.491 36.622 A 3.231 3.231 0 0 1 437.497 38.061 A 3.841 3.841 0 0 1 437.695 39.323 A 4.294 4.294 0 0 1 437.692 39.507 A 3.68 3.68 0 0 1 437.37 40.886 A 6.134 6.134 0 0 0 437.311 41.019 Q 437.141 41.418 437.079 41.731 A 1.699 1.699 0 0 0 437.044 42.058 Q 437.044 42.469 437.409 42.555 A 0.96 0.96 0 0 0 437.63 42.579 Q 438.046 42.579 438.358 41.874 A 4.162 4.162 0 0 0 438.509 41.472 A 7.155 7.155 0 0 0 438.867 39.258 A 5.639 5.639 0 0 0 438.863 39.033 A 4.443 4.443 0 0 0 437.37 35.808 A 4.499 4.499 0 0 0 436.206 35.045 Q 434.891 34.441 432.943 34.441 A 15.326 15.326 0 0 0 431.852 34.481 A 20.095 20.095 0 0 0 430.664 34.603 A 25.612 25.612 0 0 0 429.544 34.777 A 32.74 32.74 0 0 0 427.995 35.092 A 21.914 21.914 0 0 0 423.78 36.565 A 30.142 30.142 0 0 0 419.955 38.705 A 42.705 42.705 0 0 0 412.402 44.987 Q 408.984 48.568 406.803 52.442 A 22.587 22.587 0 0 0 406.131 53.729 Q 405.458 55.126 405.086 56.439 A 11.459 11.459 0 0 0 404.622 59.571 Q 404.622 63.282 407.78 65.333 Z M 461.328 67.709 L 460.677 67.709 A 14.621 14.621 0 0 1 458.643 67.474 Q 457.254 67.208 456.152 66.667 A 10.105 10.105 0 0 1 454.429 65.606 A 8.035 8.035 0 0 1 453.158 64.389 A 8.81 8.81 0 0 1 451.497 61.361 Q 450.977 59.701 450.977 57.943 A 13.993 13.993 0 0 1 451.823 53.093 Q 452.669 50.782 453.939 48.731 A 29.203 29.203 0 0 1 456.659 45.009 A 27.001 27.001 0 0 1 456.706 44.955 A 50.895 50.895 0 0 1 458.171 43.335 A 38.244 38.244 0 0 1 459.57 41.928 A 48.011 48.011 0 0 1 464.801 37.524 A 35.326 35.326 0 0 1 470.833 33.985 Q 475.388 31.915 479.243 31.49 A 17.742 17.742 0 0 1 481.185 31.381 Q 483.269 31.381 484.844 31.796 A 9.358 9.358 0 0 1 485.417 31.967 A 20.7 20.7 0 0 1 486.748 32.459 Q 487.369 32.714 487.891 32.986 A 10.645 10.645 0 0 1 488.346 33.236 A 13.148 13.148 0 0 1 489.018 33.654 Q 489.691 34.103 490.072 34.506 A 414.806 414.806 0 0 0 490.202 34.644 Q 490.633 35.1 490.69 35.157 A 0.486 0.486 0 0 1 490.725 35.251 Q 490.751 35.352 490.755 35.498 A 1.937 1.937 0 0 1 490.755 35.547 A 1.619 1.619 0 0 1 490.752 35.65 Q 490.743 35.801 490.702 35.859 A 0.107 0.107 0 0 1 490.69 35.873 A 2.74 2.74 0 0 1 491.533 36.217 A 2.326 2.326 0 0 1 492.318 37.045 A 3.989 3.989 0 0 1 492.839 39.028 A 4.683 4.683 0 0 1 492.839 39.063 Q 492.839 41.537 490.951 45.118 Q 489.063 48.698 484.961 53.191 A 13.424 13.424 0 0 0 488.36 55.762 A 12.42 12.42 0 0 0 489.649 56.348 A 15.18 15.18 0 0 0 495.182 57.357 A 18.307 18.307 0 0 0 500.618 56.509 A 21.341 21.341 0 0 0 501.758 56.12 A 23.297 23.297 0 0 0 507.414 53.039 A 26.494 26.494 0 0 0 508.073 52.54 A 0.439 0.439 0 0 1 508.386 52.41 A 0.577 0.577 0 0 1 508.399 52.409 Q 509.05 52.409 509.05 53.06 A 0.83 0.83 0 0 1 509.04 53.19 Q 509.03 53.258 509.007 53.308 A 0.25 0.25 0 0 1 508.854 53.451 Q 505.664 55.925 502.214 57.227 A 19.596 19.596 0 0 1 495.247 58.529 A 17.367 17.367 0 0 1 489.16 57.455 A 12.581 12.581 0 0 1 484.18 54.102 A 59.707 59.707 0 0 1 479.523 58.772 A 53.231 53.231 0 0 1 478.418 59.734 A 45.214 45.214 0 0 1 474.423 62.764 A 38.324 38.324 0 0 1 472.461 63.998 A 35.842 35.842 0 0 1 469.143 65.728 A 28.706 28.706 0 0 1 466.634 66.732 A 19.041 19.041 0 0 1 463.975 67.449 A 14.217 14.217 0 0 1 461.328 67.709 Z M 349.884 11.959 A 63.577 63.577 0 0 0 347.266 15.3 A 71.123 71.123 0 0 0 345.664 17.526 A 84.095 84.095 0 0 0 343.034 21.583 Q 340.951 25.001 339.095 29.004 A 70.442 70.442 0 0 0 338.19 31.043 A 80.548 80.548 0 0 0 335.742 37.598 A 69.153 69.153 0 0 0 334.857 40.534 A 80.928 80.928 0 0 0 333.268 47.461 A 40.166 40.166 0 0 1 332.774 47.557 A 45.804 45.804 0 0 1 331.218 47.82 A 66.164 66.164 0 0 1 329.037 48.112 A 28.276 28.276 0 0 0 324.414 40.56 A 16.917 16.917 0 0 0 322.208 38.396 A 18.428 18.428 0 0 0 316.927 35.417 A 30.87 30.87 0 0 1 317.578 34.538 A 30.87 30.87 0 0 0 318.229 33.659 A 231.937 231.937 0 0 1 322.073 28.551 A 194.065 194.065 0 0 1 328.418 20.769 A 93.01 93.01 0 0 1 332.23 16.599 A 75.838 75.838 0 0 1 338.705 10.645 A 54.581 54.581 0 0 1 341.016 8.864 A 47.004 47.004 0 0 1 349.577 3.874 A 32.257 32.257 0 0 1 361.458 1.107 A 48.457 48.457 0 0 0 361.246 1.264 Q 360.32 1.95 358.952 3.028 Q 358.091 3.705 357.128 4.558 A 62.408 62.408 0 0 0 355.566 5.99 A 77.264 77.264 0 0 0 353.638 7.886 A 105.935 105.935 0 0 0 351.563 10.059 A 51.431 51.431 0 0 0 349.884 11.959 Z M 67.774 12.826 A 26.058 26.058 0 0 0 67.108 12.551 A 22.768 22.768 0 0 0 66.895 12.468 Q 66.471 12.305 66.016 12.175 Q 62.109 13.282 58.626 15.593 A 41.558 41.558 0 0 0 52.78 20.31 A 46.656 46.656 0 0 0 51.986 21.094 A 65.222 65.222 0 0 0 46.174 27.856 A 71.257 71.257 0 0 0 45.996 28.093 A 173.852 173.852 0 0 0 40.495 35.938 A 18.224 18.224 0 0 1 42.392 36.904 A 22.516 22.516 0 0 1 43.555 37.631 A 12.718 12.718 0 0 1 43.982 37.93 Q 44.678 38.436 45.703 39.291 Q 47.07 40.43 48.535 42.058 A 25.567 25.567 0 0 1 50.315 44.283 A 31.269 31.269 0 0 1 51.335 45.801 A 18.119 18.119 0 0 1 53.386 50.326 A 37.724 37.724 0 0 0 54.948 50.424 A 37.529 37.529 0 0 0 56.511 50.456 Q 59.636 50.456 62.858 49.773 A 23.781 23.781 0 0 0 67.874 48.089 A 27.66 27.66 0 0 0 69.271 47.396 A 38.028 38.028 0 0 0 72.06 45.725 Q 73.375 44.855 74.444 43.959 A 20.8 20.8 0 0 0 75.13 43.36 A 21.62 21.62 0 0 0 77.101 41.319 A 15.909 15.909 0 0 0 78.678 39.096 Q 79.948 36.915 80.404 34.734 A 21.094 21.094 0 0 0 80.851 31.024 A 19.233 19.233 0 0 0 80.859 30.469 A 20.586 20.586 0 0 0 80.548 26.96 A 23.875 23.875 0 0 0 80.306 25.749 A 14.934 14.934 0 0 0 78.905 22.031 A 17.665 17.665 0 0 0 78.288 20.964 Q 76.823 18.62 74.284 16.537 Q 71.745 14.454 67.774 12.826 Z M 141.146 67.058 Q 143.88 67.058 146.745 65.918 A 32.265 32.265 0 0 0 151.201 63.721 A 37.054 37.054 0 0 0 152.441 62.956 A 72.704 72.704 0 0 0 158.008 58.985 A 203.468 203.468 0 0 0 161.963 55.799 A 182.389 182.389 0 0 0 163.216 54.753 Q 166.471 52.084 168.555 49.87 Q 170.15 48.176 171.249 46.71 A 22.875 22.875 0 0 0 171.875 45.834 A 19.641 19.641 0 0 0 172.633 44.631 Q 172.986 44.02 173.235 43.465 A 8.57 8.57 0 0 0 173.568 42.611 A 11.141 11.141 0 0 0 173.846 41.612 Q 173.957 41.117 173.998 40.678 A 5.381 5.381 0 0 0 174.024 40.17 Q 174.024 38.672 173.307 37.663 A 7.387 7.387 0 0 0 172.45 36.652 A 5.98 5.98 0 0 0 171.712 36.036 A 8.979 8.979 0 0 0 171.071 35.622 Q 170.723 35.419 170.397 35.279 A 4.674 4.674 0 0 0 170.085 35.157 Q 169.35 34.901 169.274 34.896 A 0.043 0.043 0 0 0 169.271 34.896 A 16.782 16.782 0 0 0 165.94 34.352 A 19.849 19.849 0 0 0 164.649 34.31 A 24.608 24.608 0 0 0 158.263 35.194 A 33.988 33.988 0 0 0 152.93 37.142 Q 146.745 39.974 140.625 45.118 A 45.394 45.394 0 0 0 136.856 48.66 Q 133.148 52.606 132.144 56.114 A 9.227 9.227 0 0 0 131.771 58.659 A 8.76 8.76 0 0 0 132.008 60.733 A 7.333 7.333 0 0 0 132.52 62.175 A 7.848 7.848 0 0 0 134.538 64.812 A 8.877 8.877 0 0 0 136.902 66.235 A 10.467 10.467 0 0 0 137.533 66.472 Q 139.258 67.058 141.146 67.058 Z M 516.667 67.253 A 14.421 14.421 0 0 0 520.503 66.715 A 17.839 17.839 0 0 0 522.298 66.114 A 31.983 31.983 0 0 0 526.963 63.811 A 36.236 36.236 0 0 0 528.027 63.152 A 72.704 72.704 0 0 0 533.594 59.18 A 203.468 203.468 0 0 0 537.549 55.994 A 182.389 182.389 0 0 0 538.802 54.948 A 76.792 76.792 0 0 0 541.039 53.006 Q 542.774 51.437 544.076 50.033 Q 546.159 47.787 547.396 45.997 A 18.694 18.694 0 0 0 548.154 44.812 Q 548.512 44.201 548.763 43.642 A 8.334 8.334 0 0 0 549.089 42.807 A 11.141 11.141 0 0 0 549.366 41.807 Q 549.478 41.313 549.519 40.873 A 5.381 5.381 0 0 0 549.544 40.365 A 5.556 5.556 0 0 0 549.401 39.07 A 3.921 3.921 0 0 0 548.568 37.403 A 6.741 6.741 0 0 0 546.33 35.706 A 7.847 7.847 0 0 0 546.126 35.612 A 12.382 12.382 0 0 0 543.001 34.701 A 22.251 22.251 0 0 0 541.206 34.49 A 17.497 17.497 0 0 0 539.909 34.441 A 24.315 24.315 0 0 0 533.321 35.391 A 32.732 32.732 0 0 0 528.451 37.208 A 47.708 47.708 0 0 0 522.38 40.601 Q 519.303 42.611 516.146 45.248 A 48.324 48.324 0 0 0 513.212 47.99 Q 511.834 49.397 510.768 50.759 A 24.25 24.25 0 0 0 509.603 52.377 A 16.919 16.919 0 0 0 508.324 54.669 Q 507.357 56.802 507.357 58.724 A 9.158 9.158 0 0 0 507.577 60.771 A 7.563 7.563 0 0 0 508.073 62.24 A 7.818 7.818 0 0 0 510.059 64.909 A 9.231 9.231 0 0 0 512.707 66.514 A 10.57 10.57 0 0 0 513.021 66.635 A 10.331 10.331 0 0 0 516.063 67.238 A 11.967 11.967 0 0 0 516.667 67.253 Z M 481.38 32.487 A 17.279 17.279 0 0 0 479.057 32.653 A 23.344 23.344 0 0 0 476.823 33.073 A 27.86 27.86 0 0 0 473.654 34.035 A 34.271 34.271 0 0 0 471.68 34.831 Q 469.711 35.717 467.315 37.272 A 56.005 56.005 0 0 0 465.723 38.347 A 43.678 43.678 0 0 0 459.734 43.416 A 48.345 48.345 0 0 0 459.343 43.816 Q 456.315 46.941 454.232 50.586 Q 452.149 54.232 452.149 57.943 A 11.113 11.113 0 0 0 452.604 61.068 Q 453.06 62.631 454.134 63.835 A 6.959 6.959 0 0 0 455.662 65.105 A 9.338 9.338 0 0 0 456.999 65.788 A 8.955 8.955 0 0 0 458.788 66.313 Q 459.656 66.477 460.654 66.521 A 16.921 16.921 0 0 0 461.393 66.537 A 14.758 14.758 0 0 0 465.353 65.957 Q 468.396 65.109 471.875 63.021 Q 477.363 59.729 482.793 53.867 A 73.113 73.113 0 0 0 483.529 53.06 A 8.545 8.545 0 0 1 482.476 50.708 A 10.031 10.031 0 0 1 482.324 50.098 A 16.166 16.166 0 0 1 481.966 46.68 Q 481.966 44.532 482.52 42.546 A 14.036 14.036 0 0 1 483.326 40.349 A 11.619 11.619 0 0 1 484.05 39.03 A 7.801 7.801 0 0 1 485.608 37.235 A 7.093 7.093 0 0 1 486.458 36.622 Q 487.891 35.743 489.649 35.743 Q 489.388 35.417 488.77 34.864 A 5.941 5.941 0 0 0 488.178 34.403 Q 487.867 34.188 487.494 33.979 A 11.441 11.441 0 0 0 487.142 33.79 A 9.987 9.987 0 0 0 486.178 33.359 Q 485.506 33.098 484.701 32.878 A 10.516 10.516 0 0 0 483.206 32.591 Q 482.46 32.5 481.622 32.489 A 17.829 17.829 0 0 0 481.38 32.487 Z M 504.794 97.437 A 107.116 107.116 0 0 0 506.152 96.029 A 140.854 140.854 0 0 0 509.196 92.709 A 181.825 181.825 0 0 0 512.402 88.998 A 239.104 239.104 0 0 0 516.601 83.861 A 285.889 285.889 0 0 0 519.206 80.534 Q 522.721 75.977 526.237 71.029 A 134.208 134.208 0 0 0 522.477 73.194 A 168.927 168.927 0 0 0 518.49 75.652 Q 514.388 78.256 510.384 81.12 Q 506.38 83.985 502.702 87.012 Q 499.024 90.04 496.257 92.807 Q 494.003 95.06 492.484 97.054 A 26.922 26.922 0 0 0 491.83 97.95 Q 490.169 100.326 490.169 102.019 A 3.129 3.129 0 0 0 490.231 102.656 A 2.28 2.28 0 0 0 490.495 103.353 A 3.117 3.117 0 0 0 490.877 103.877 A 2.534 2.534 0 0 0 491.276 104.232 A 3.347 3.347 0 0 0 492.285 104.721 Q 492.797 104.871 493.226 104.882 A 2.615 2.615 0 0 0 493.294 104.883 A 5.875 5.875 0 0 0 494.797 104.68 A 7.557 7.557 0 0 0 495.736 104.362 A 17.432 17.432 0 0 0 497.53 103.508 A 15.301 15.301 0 0 0 498.08 103.191 Q 498.944 102.667 499.598 102.185 A 13.246 13.246 0 0 0 499.902 101.954 A 63.909 63.909 0 0 0 500.161 101.75 Q 500.676 101.343 500.781 101.237 Q 502.626 99.642 504.794 97.437 Z M 101.302 72.982 A 239.878 239.878 0 0 0 91.372 78.817 A 214.099 214.099 0 0 0 88.249 80.795 A 134.058 134.058 0 0 0 82.479 84.725 A 99.162 99.162 0 0 0 77.474 88.575 Q 73.935 91.491 71.522 94.159 A 34.297 34.297 0 0 0 70.15 95.769 A 18.388 18.388 0 0 0 68.844 97.611 Q 67.448 99.887 67.448 101.758 A 3.183 3.183 0 0 0 67.616 102.81 A 2.789 2.789 0 0 0 68.164 103.744 A 2.069 2.069 0 0 0 68.954 104.286 Q 69.602 104.55 70.577 104.558 A 7.479 7.479 0 0 0 70.638 104.558 Q 73.561 104.558 77.594 101.796 A 30.494 30.494 0 0 0 78.158 101.4 A 41.217 41.217 0 0 0 81.82 98.41 Q 83.534 96.851 85.324 94.937 A 81.906 81.906 0 0 0 87.5 92.514 Q 89.714 89.974 91.764 87.305 Q 93.815 84.636 95.573 82.064 Q 97.331 79.493 98.796 77.182 A 98.04 98.04 0 0 0 100.076 75.108 Q 100.665 74.126 101.162 73.235 A 57.491 57.491 0 0 0 101.302 72.982 Z M 122.852 36.329 A 45.59 45.59 0 0 0 122.593 36.778 Q 122.182 37.503 121.522 38.708 A 301.881 301.881 0 0 0 121.452 38.835 Q 120.508 40.56 119.206 42.904 Q 117.904 45.248 116.341 48.08 Q 114.779 50.912 113.151 53.842 Q 117.909 49.725 121.043 46.138 A 42.529 42.529 0 0 0 123.405 43.197 A 36.929 36.929 0 0 0 124.846 41.077 Q 126.142 39.008 126.616 37.469 A 5.489 5.489 0 0 0 126.888 35.873 Q 126.888 35.33 126.749 34.96 A 1.272 1.272 0 0 0 126.497 34.538 A 1.407 1.407 0 0 0 126.159 34.264 A 1.142 1.142 0 0 0 125.586 34.115 Q 124.74 34.115 124.024 34.864 A 11.168 11.168 0 0 0 123.372 35.604 A 8.273 8.273 0 0 0 122.852 36.329 Z M 320.313 48.503 Q 322.136 48.503 323.958 48.471 A 48.039 48.039 0 0 0 326.338 48.366 A 59.002 59.002 0 0 0 327.865 48.243 A 28.887 28.887 0 0 0 323.307 41.114 Q 320.508 37.891 316.211 36.459 A 96.803 96.803 0 0 0 312.663 41.7 A 430.448 430.448 0 0 1 309.31 46.941 Q 311.328 47.527 313.997 47.95 A 39.777 39.777 0 0 0 316.137 48.226 Q 318.034 48.422 320.313 48.503 Z M 35.352 44.076 A 40.682 40.682 0 0 0 43.099 48.015 A 36.911 36.911 0 0 0 48.501 49.584 A 46.067 46.067 0 0 0 52.083 50.196 A 19.903 19.903 0 0 0 50.705 47.131 A 17.923 17.923 0 0 0 50.326 46.485 Q 49.284 44.792 48.112 43.425 Q 46.973 42.088 46.022 41.127 A 24.131 24.131 0 0 0 45.443 40.56 A 29.939 29.939 0 0 0 44.591 39.785 Q 44.119 39.373 43.683 39.032 A 16.13 16.13 0 0 0 43.294 38.737 Q 42.459 38.125 41.719 37.774 A 6.436 6.436 0 0 0 41.471 37.663 A 334.551 334.551 0 0 0 40.239 37.144 A 295.377 295.377 0 0 0 39.844 36.98 Q 38.737 38.737 37.63 40.463 A 278.689 278.689 0 0 0 35.934 43.142 A 314.24 314.24 0 0 0 35.352 44.076 Z M 489.649 36.915 A 5.42 5.42 0 0 0 485.86 38.578 A 8.13 8.13 0 0 0 485.026 39.551 Q 483.138 42.123 483.138 46.615 Q 483.138 48.112 483.399 49.512 A 9.266 9.266 0 0 0 484.31 52.149 A 68.252 68.252 0 0 0 486.966 48.831 Q 488.513 46.762 489.649 44.857 Q 491.615 41.558 491.665 39.187 A 5.841 5.841 0 0 0 491.667 39.063 A 3.399 3.399 0 0 0 491.609 38.418 Q 491.537 38.047 491.376 37.752 A 1.881 1.881 0 0 0 491.211 37.501 A 1.368 1.368 0 0 0 490.605 37.066 Q 490.211 36.915 489.649 36.915 Z M 302.8 41.016 A 4.265 4.265 0 0 0 302.929 42.088 A 3.519 3.519 0 0 0 303.288 42.969 Q 303.776 43.816 304.557 44.499 A 8.627 8.627 0 0 0 306.283 45.671 Q 307.227 46.159 308.203 46.55 Q 309.831 44.011 311.491 41.374 A 118.913 118.913 0 0 1 315.039 36.068 A 17.815 17.815 0 0 0 310.961 35.549 A 19.781 19.781 0 0 0 310.677 35.547 Q 309.44 35.547 308.073 35.775 A 8.964 8.964 0 0 0 305.681 36.517 A 8.433 8.433 0 0 0 305.534 36.589 Q 304.362 37.175 303.581 38.249 A 3.913 3.913 0 0 0 302.949 39.653 Q 302.818 40.198 302.802 40.833 A 7.12 7.12 0 0 0 302.8 41.016 Z M 37.044 22.657 A 21.532 21.532 0 0 0 36.77 19.278 A 23.947 23.947 0 0 0 36.686 18.783 Q 36.328 16.797 35.156 14.974 Q 33.789 16.016 32.715 17.448 A 24.573 24.573 0 0 0 31.282 19.574 A 21.409 21.409 0 0 0 30.859 20.313 Q 30.078 21.745 29.688 23.015 Q 29.325 24.192 29.299 24.95 A 3.344 3.344 0 0 0 29.297 25.066 A 6.145 6.145 0 0 0 29.419 26.326 Q 29.589 27.136 29.995 27.759 A 3.642 3.642 0 0 0 30.241 28.093 A 3.086 3.086 0 0 0 32.465 29.219 A 4.348 4.348 0 0 0 32.813 29.232 Q 33.984 29.232 34.766 28.646 A 4.31 4.31 0 0 0 35.876 27.403 A 5.115 5.115 0 0 0 36.035 27.116 A 7.418 7.418 0 0 0 36.584 25.711 A 8.917 8.917 0 0 0 36.751 25.001 A 17.292 17.292 0 0 0 37.044 22.657 Z M 332.22 53.987 A 64.797 64.797 0 0 0 331.901 57.878 A 40.718 40.718 0 0 0 331.62 56.332 A 49.299 49.299 0 0 0 330.99 53.614 A 29.124 29.124 0 0 0 329.492 49.284 A 80.853 80.853 0 0 0 329.946 49.218 A 73.257 73.257 0 0 0 333.008 48.698 A 86.209 86.209 0 0 0 332.324 53.126 A 57.864 57.864 0 0 0 332.22 53.987 Z M 32.422 39.584 A 4.362 4.362 0 0 0 32.943 41.667 A 5.328 5.328 0 0 0 34.375 43.36 Q 35.938 40.626 38.737 36.589 Q 37.565 36.264 36.393 36.264 Q 34.896 36.264 33.659 36.98 Q 32.502 37.649 32.427 39.344 A 5.427 5.427 0 0 0 32.422 39.584 Z" vector-effect="non-scaling-stroke"/></g></svg>